<mxfile host="app.diagrams.net" modified="2023-02-27T08:23:00.235Z" agent="5.0 (Windows NT 10.0; Win64; x64) AppleWebKit/537.36 (KHTML, like Gecko) Chrome/83.0.4103.97 Safari/537.36" etag="EbTBmclvYUJ3LL4TKcOs" version="20.8.23" type="github">
  <diagram name="第 1 页" id="6Glug3bpMYYYP8ystVI8">
    <mxGraphModel dx="1176" dy="717" grid="1" gridSize="10" guides="1" tooltips="1" connect="1" arrows="1" fold="1" page="1" pageScale="1" pageWidth="827" pageHeight="1169" math="0" shadow="0">
      <root>
        <mxCell id="0" />
        <mxCell id="1" parent="0" />
        <mxCell id="E7DzrpY01ac4CB6CgRHm-1" value="0" style="ellipse;whiteSpace=wrap;html=1;aspect=fixed;" vertex="1" parent="1">
          <mxGeometry x="140" y="230" width="80" height="80" as="geometry" />
        </mxCell>
        <mxCell id="E7DzrpY01ac4CB6CgRHm-2" value="1" style="ellipse;whiteSpace=wrap;html=1;aspect=fixed;" vertex="1" parent="1">
          <mxGeometry x="220" y="440" width="80" height="80" as="geometry" />
        </mxCell>
        <mxCell id="E7DzrpY01ac4CB6CgRHm-3" value="2" style="ellipse;whiteSpace=wrap;html=1;aspect=fixed;" vertex="1" parent="1">
          <mxGeometry x="374" y="250" width="80" height="80" as="geometry" />
        </mxCell>
        <mxCell id="E7DzrpY01ac4CB6CgRHm-4" value="" style="endArrow=classic;html=1;rounded=0;exitX=0.664;exitY=1;exitDx=0;exitDy=0;entryX=0.219;entryY=0.07;entryDx=0;entryDy=0;entryPerimeter=0;exitPerimeter=0;fillColor=#e51400;strokeColor=#B20000;" edge="1" parent="1" source="E7DzrpY01ac4CB6CgRHm-1" target="E7DzrpY01ac4CB6CgRHm-2">
          <mxGeometry width="50" height="50" relative="1" as="geometry">
            <mxPoint x="160" y="410" as="sourcePoint" />
            <mxPoint x="210" y="360" as="targetPoint" />
          </mxGeometry>
        </mxCell>
        <mxCell id="E7DzrpY01ac4CB6CgRHm-5" value="" style="endArrow=classic;html=1;rounded=0;exitX=0.364;exitY=1.014;exitDx=0;exitDy=0;exitPerimeter=0;entryX=1;entryY=0;entryDx=0;entryDy=0;fillColor=#dae8fc;strokeColor=#0000FF;" edge="1" parent="1" source="E7DzrpY01ac4CB6CgRHm-3" target="E7DzrpY01ac4CB6CgRHm-2">
          <mxGeometry width="50" height="50" relative="1" as="geometry">
            <mxPoint x="440" y="460" as="sourcePoint" />
            <mxPoint x="490" y="410" as="targetPoint" />
          </mxGeometry>
        </mxCell>
      </root>
    </mxGraphModel>
  </diagram>
</mxfile>
